<mxfile host="app.diagrams.net" modified="2023-12-18T12:48:10.183Z" agent="Mozilla/5.0 (X11; Linux x86_64) AppleWebKit/537.36 (KHTML, like Gecko) Chrome/119.0.0.0 Safari/537.36" etag="6FHbWZVWfXmN5mwqHpVt" version="22.1.11" type="device">
  <diagram name="Page-1" id="BpHlNShg4N9wC7QuY1sT">
    <mxGraphModel dx="6176" dy="1596" grid="1" gridSize="10" guides="1" tooltips="1" connect="1" arrows="1" fold="1" page="1" pageScale="1" pageWidth="827" pageHeight="1169" math="0" shadow="0">
      <root>
        <mxCell id="0" />
        <mxCell id="1" parent="0" />
        <mxCell id="hBH4CVdXTq9P5H1dL7hQ-3" value="" style="shape=image;imageAspect=0;aspect=fixed;verticalLabelPosition=bottom;verticalAlign=top;image=data:image/png,iVBORw0KGgoAAAANSUhEUgAAAOEAAADhCAMAAAAJbSJIAAAA2FBMVEVZtNn///85mca41DJ/ugAvlsSQwdxRsdhBoMv5/P6m0+hgt9q53e5Jr9bs9vuaxd14twC10iOfyCK93+7B2V/k8vjb7fa00hmDutid0OfJ4aWs1+rI5PHz+Oe10iD5/PH7/fitzyqYxRvd7MaDxeHG4/GQyuRxvd7q8s3d66/a6KTT5ZHN4X/I3nHB2l/Z6Kbe67Lk78LW5prv9dm71kPB2VWrzjTR44mpz1HL4qeqz0bB23qKvw/1+emeyACrzgCpz26Qwzq92pGlzWKXxknT5rXh7s9aqM4IMmP7AAAF40lEQVR4nO3b/V+aXBjHcdTMRLGcgfmYzodaz6217u67bdVW/f//0Q0iCBwOnAMKV+37+Wn6AuOt7VxgqhQ+ekreB7DxIHz/Qfj+ExMOBsdfLk9Oz8739y/2F52ffb28vDq+GWz4+NIXLRwNrk/ubpvDdrs9bFqVnBa37Psv7k6uf2R0uAniCwfXp7dNC1aKy6KWLr4eH2Z43OKFC0fHdxYu1uZzttul0+OMD1+gMOH1+bAtp1spS2c3mRuiY4Sjy1JCnoP8dpUHhFtQ+KU5TMGzG5auc7GE5xce3rZT+6za+6OcPGw+4Y3AwilWc0xmfniFh+vyWX3PjRTIK7xbp3DYzc3kzyv8tkZgqfRPbiZ/G3sNPcJG9ixPSqHq/nuwnoXUrn3vPm4/D5ibUtBXN04iiePx+NMq89Y4YuPmv6uH7VXZn5tdSkH13DpliSbr88PDltne3pavxe2Hh8+fQqjN756BeJSz8MDw3LzynrFZtq0AK7S9LcvpAf76z/OYhpazcPvNe3t0ZhvHgjg/01a2b1+9D3mUu7C87bvnx+nwp6zOo/z5a3/ie7x5pZK7sLwbuHPyyPynEwPu7T11A9fBHU3JX1gsHwTvHr0+P5nHK8G0Nn58Yc5Gp5pCQVgsv4VN5dfu7wUzGmpv8Od5EvImhl6rKDSERfY3ddloMHl5fnyyHSE9/Hl8fgnDmVXN31CFitA0FtXIDQ8Hg5uJ2cv9fbfbvb9/mbwOBlHvPVV7lYpCSbgwru9QGqrjIyS0fld94z95/anm+kgJLWNxOyWyaswVr4+Y0EYetJJe8Oj1acXPIyhcIMs72y1d7sCqRs/SBXk0hUtl+e1gd6bHP0bDmKnTmsa8dsSFLtOCbu/WZ32j0aiuauhGf1ZXOxbNfOV4OupCr9POvLljHbSm2bBI2rsRBtqJN0EIIYQQQgghhBBCCCGEEEIIIYQQQgghhBBCCCGEEEIIIYQQQgghhBBCCCGEGxEKfOosokaDvLBfSQXUyAvrWi0F0KiQF6qakkI40xTqwrmmpBD2zL1pC6tH1uceEwsXX4UgLWwsvo2SWDhd7E1ZqC8/uJpMaL/+pIV9TUkhbCjL54eusO4AEwkN94PLZIUdF5hEOFvtTVU4XR1iAmHPszdNobNKJBTOPUCawuWUSCqc+vamKDQCX2+QE1b9Tw9FYV8L7Cwl1IM/mp6wFwRKCQ1mb3LCDnOIMsIWuzc14TTkK0biQpUFEhP6p4S0cB4CpCV0zyWTCUOfHlJCdpWQEQaGKEVhyCohIdR53xGkIwxbJcSFzBClJwxdJYSFdf7eVIThq4SoMGSIEhPyVglB4TQCSEPInEtKCcOHKCkhf5UQEXKGKCVhxCohIAxeahEURq0S8cK415+AMGJKCAjZSy1qwphVIk4o8PTkLIyeErHCsEstWsLYVSJSKPT65yuMXyWihHrMlCAgFFglIoS8Sy1CwvgpESXkXmrREQqtElwh/1KLilBwleAJRaZEvsK4c8kYoczTk49QcEo4BYRiQ9QtD+FM4nfMyi+MudRiykEoPCWcfELRIeqWvVBmlbDzCmMvtZgyF0pMCSePUHyIumUsDP5xT6iVMPINGU7ZCmVXCTtXKDUlnDIVCp9L+lsK5YaoW5ZC8XNJf7UkQ9QtQ6HEuaS/WqIp4ZSdUH5KONWSDFG3zISJVgm7WqIp4ZSRUEkyJdzUBEPULSthqtI8O+9DmCoIIaQfhBDST9MhhJB6EEJIPwghpB+EH0BoQAgh9SCEkH4QQkg/CCGMrMIp3aZS225WWKuGV+iwB9PgbNpjNq10CpxtcxAWOLFC7rcV6mFCThBCCCGEuQn7EEIIIYQQQghhBUII6QtnEEIIIYQfUqhmKmxtUFgPrzVlt+VtOmffWp22ONtmL1zHe95p3x/fsJBEEEJIv79AWIcQQupBCCH9IISQfhB+AGEPQgipByGE9IMQQvpBCCH9/gKhCiGE1PtrhJIVuX+ypZfWMYWtXdnUd5T1ubaP3v+f3iarOvgxxQAAAABJRU5ErkJggg==;" vertex="1" parent="1">
          <mxGeometry x="-2000" y="145.5" width="244.5" height="244.5" as="geometry" />
        </mxCell>
        <mxCell id="hBH4CVdXTq9P5H1dL7hQ-4" value="" style="shape=image;imageAspect=0;aspect=fixed;verticalLabelPosition=bottom;verticalAlign=top;image=https://camo.githubusercontent.com/a60d8af2fa30ff7a89eb926228a0d170adfc4ec05e082f41d21e3d3bb294effb/68747470733a2f2f73332d75732d776573742d312e616d617a6f6e6177732e636f6d2f73747269696d2d70726f642d6d656469612f77702d636f6e74656e742f75706c6f6164732f323031382f30362f32323133353530322f417a7572652d446174614c616b652d69636f6e2e706e67;" vertex="1" parent="1">
          <mxGeometry x="-1570" y="127.8" width="313" height="250.4" as="geometry" />
        </mxCell>
        <mxCell id="hBH4CVdXTq9P5H1dL7hQ-5" value="" style="shape=image;imageAspect=0;aspect=fixed;verticalLabelPosition=bottom;verticalAlign=top;image=https://www.element61.be/sites/default/files/img_competences/databricks_icon.png;" vertex="1" parent="1">
          <mxGeometry x="-1070" y="152.7" width="213" height="226" as="geometry" />
        </mxCell>
        <mxCell id="hBH4CVdXTq9P5H1dL7hQ-6" value="" style="shape=image;imageAspect=0;aspect=fixed;verticalLabelPosition=bottom;verticalAlign=top;image=https://azure.microsoft.com/svghandler/synapse-analytics/?width=600&amp;height=315;" vertex="1" parent="1">
          <mxGeometry x="-190" y="140.12" width="430" height="225.75" as="geometry" />
        </mxCell>
        <mxCell id="hBH4CVdXTq9P5H1dL7hQ-7" value="" style="shape=image;imageAspect=0;aspect=fixed;verticalLabelPosition=bottom;verticalAlign=top;image=https://cdn.iconscout.com/icon/premium/png-256-thumb/data-source-536723.png;" vertex="1" parent="1">
          <mxGeometry x="-2490" y="122.2" width="256" height="256" as="geometry" />
        </mxCell>
        <mxCell id="hBH4CVdXTq9P5H1dL7hQ-10" value="" style="shape=image;imageAspect=0;aspect=fixed;verticalLabelPosition=bottom;verticalAlign=top;image=https://camo.githubusercontent.com/a60d8af2fa30ff7a89eb926228a0d170adfc4ec05e082f41d21e3d3bb294effb/68747470733a2f2f73332d75732d776573742d312e616d617a6f6e6177732e636f6d2f73747269696d2d70726f642d6d656469612f77702d636f6e74656e742f75706c6f6164732f323031382f30362f32323133353530322f417a7572652d446174614c616b652d69636f6e2e706e67;" vertex="1" parent="1">
          <mxGeometry x="-630" y="127.8" width="313" height="250.4" as="geometry" />
        </mxCell>
        <mxCell id="hBH4CVdXTq9P5H1dL7hQ-11" value="" style="endArrow=classic;html=1;rounded=0;exitX=1;exitY=0.5;exitDx=0;exitDy=0;" edge="1" parent="1" source="hBH4CVdXTq9P5H1dL7hQ-7">
          <mxGeometry width="50" height="50" relative="1" as="geometry">
            <mxPoint x="-2200" y="270" as="sourcePoint" />
            <mxPoint x="-2010" y="250" as="targetPoint" />
          </mxGeometry>
        </mxCell>
        <mxCell id="hBH4CVdXTq9P5H1dL7hQ-12" value="" style="endArrow=classic;html=1;rounded=0;exitX=1;exitY=0.5;exitDx=0;exitDy=0;" edge="1" parent="1">
          <mxGeometry width="50" height="50" relative="1" as="geometry">
            <mxPoint x="-1750" y="251.07" as="sourcePoint" />
            <mxPoint x="-1526" y="250.07" as="targetPoint" />
          </mxGeometry>
        </mxCell>
        <mxCell id="hBH4CVdXTq9P5H1dL7hQ-13" value="" style="endArrow=classic;html=1;rounded=0;exitX=1;exitY=0.5;exitDx=0;exitDy=0;" edge="1" parent="1">
          <mxGeometry width="50" height="50" relative="1" as="geometry">
            <mxPoint x="-1310" y="251.07" as="sourcePoint" />
            <mxPoint x="-1086" y="250.07" as="targetPoint" />
          </mxGeometry>
        </mxCell>
        <mxCell id="hBH4CVdXTq9P5H1dL7hQ-15" value="" style="endArrow=classic;html=1;rounded=0;exitX=1;exitY=0.5;exitDx=0;exitDy=0;" edge="1" parent="1">
          <mxGeometry width="50" height="50" relative="1" as="geometry">
            <mxPoint x="-840" y="253.37" as="sourcePoint" />
            <mxPoint x="-616" y="252.37" as="targetPoint" />
          </mxGeometry>
        </mxCell>
        <mxCell id="hBH4CVdXTq9P5H1dL7hQ-16" value="" style="endArrow=classic;html=1;rounded=0;exitX=1;exitY=0.5;exitDx=0;exitDy=0;" edge="1" parent="1">
          <mxGeometry width="50" height="50" relative="1" as="geometry">
            <mxPoint x="-350" y="253.37" as="sourcePoint" />
            <mxPoint x="-126" y="252.37" as="targetPoint" />
          </mxGeometry>
        </mxCell>
        <mxCell id="hBH4CVdXTq9P5H1dL7hQ-17" value="&lt;font style=&quot;font-size: 22px;&quot;&gt;Data Source&lt;/font&gt;" style="text;html=1;align=center;verticalAlign=middle;resizable=0;points=[];autosize=1;strokeColor=none;fillColor=none;" vertex="1" parent="1">
          <mxGeometry x="-2540" y="35" width="150" height="40" as="geometry" />
        </mxCell>
        <mxCell id="hBH4CVdXTq9P5H1dL7hQ-18" value="&lt;font style=&quot;font-size: 22px;&quot;&gt;Data Ingesion&lt;/font&gt;" style="text;html=1;align=center;verticalAlign=middle;resizable=0;points=[];autosize=1;strokeColor=none;fillColor=none;" vertex="1" parent="1">
          <mxGeometry x="-2050" y="35" width="160" height="40" as="geometry" />
        </mxCell>
        <mxCell id="hBH4CVdXTq9P5H1dL7hQ-20" value="&lt;font style=&quot;font-size: 22px;&quot;&gt;Raw Data Store&lt;/font&gt;" style="text;html=1;align=center;verticalAlign=middle;resizable=0;points=[];autosize=1;strokeColor=none;fillColor=none;" vertex="1" parent="1">
          <mxGeometry x="-1570" y="35" width="180" height="40" as="geometry" />
        </mxCell>
        <mxCell id="hBH4CVdXTq9P5H1dL7hQ-21" value="&lt;font style=&quot;font-size: 22px;&quot;&gt;Transformation&lt;/font&gt;" style="text;html=1;align=center;verticalAlign=middle;resizable=0;points=[];autosize=1;strokeColor=none;fillColor=none;" vertex="1" parent="1">
          <mxGeometry x="-1120" y="35" width="170" height="40" as="geometry" />
        </mxCell>
        <mxCell id="hBH4CVdXTq9P5H1dL7hQ-22" value="&lt;font style=&quot;font-size: 22px;&quot;&gt;Transformed Data&lt;/font&gt;" style="text;html=1;align=center;verticalAlign=middle;resizable=0;points=[];autosize=1;strokeColor=none;fillColor=none;" vertex="1" parent="1">
          <mxGeometry x="-635" y="35" width="200" height="40" as="geometry" />
        </mxCell>
        <mxCell id="hBH4CVdXTq9P5H1dL7hQ-23" value="&lt;font style=&quot;font-size: 22px;&quot;&gt;Analytics&lt;/font&gt;" style="text;html=1;align=center;verticalAlign=middle;resizable=0;points=[];autosize=1;strokeColor=none;fillColor=none;" vertex="1" parent="1">
          <mxGeometry x="-120" y="35" width="110" height="40" as="geometry" />
        </mxCell>
        <mxCell id="hBH4CVdXTq9P5H1dL7hQ-25" value="&lt;font style=&quot;font-size: 22px;&quot;&gt;Data Factory&lt;/font&gt;" style="text;html=1;align=center;verticalAlign=middle;resizable=0;points=[];autosize=1;strokeColor=none;fillColor=none;" vertex="1" parent="1">
          <mxGeometry x="-1960" y="390" width="150" height="40" as="geometry" />
        </mxCell>
        <mxCell id="hBH4CVdXTq9P5H1dL7hQ-26" value="&lt;font style=&quot;font-size: 22px;&quot;&gt;Data Lake Gen 2&lt;/font&gt;" style="text;html=1;align=center;verticalAlign=middle;resizable=0;points=[];autosize=1;strokeColor=none;fillColor=none;" vertex="1" parent="1">
          <mxGeometry x="-1508.5" y="378.2" width="190" height="40" as="geometry" />
        </mxCell>
        <mxCell id="hBH4CVdXTq9P5H1dL7hQ-27" value="&lt;font style=&quot;font-size: 22px;&quot;&gt;Azure Databricks&amp;nbsp;&lt;/font&gt;" style="text;html=1;align=center;verticalAlign=middle;resizable=0;points=[];autosize=1;strokeColor=none;fillColor=none;" vertex="1" parent="1">
          <mxGeometry x="-1070" y="378.2" width="200" height="40" as="geometry" />
        </mxCell>
        <mxCell id="hBH4CVdXTq9P5H1dL7hQ-29" value="&lt;font style=&quot;font-size: 22px;&quot;&gt;Azure Synapse&amp;nbsp;&lt;br&gt;Analytics&lt;br&gt;&lt;/font&gt;" style="text;html=1;align=center;verticalAlign=middle;resizable=0;points=[];autosize=1;strokeColor=none;fillColor=none;" vertex="1" parent="1">
          <mxGeometry x="-65" y="363.2" width="180" height="70" as="geometry" />
        </mxCell>
        <mxCell id="hBH4CVdXTq9P5H1dL7hQ-30" value="&lt;font style=&quot;font-size: 22px;&quot;&gt;Data Lake Gen 2&lt;/font&gt;" style="text;html=1;align=center;verticalAlign=middle;resizable=0;points=[];autosize=1;strokeColor=none;fillColor=none;" vertex="1" parent="1">
          <mxGeometry x="-568.5" y="378.7" width="190" height="40" as="geometry" />
        </mxCell>
      </root>
    </mxGraphModel>
  </diagram>
</mxfile>
